<svg xmlns="http://www.w3.org/2000/svg" width="32" height="32" fill="none" viewBox="0 0 32 32"><rect width="32" height="32" fill="#fff"/><path fill="#82DBC5" d="M11.6854 4.42916C12.0738 3.78182 13.012 3.78182 13.4004 4.42915L19.1771 14.0569C19.577 14.7235 19.0969 15.5714 18.3196 15.5714H6.76624C5.98894 15.5714 5.50883 14.7235 5.90875 14.0569L11.6854 4.42916Z"/><path fill="#4F4F4F" d="M15.6857 11.5429C15.6857 10.9906 16.1334 10.5429 16.6857 10.5429H26C26.5522 10.5429 27 10.9906 27 11.5429V20.8572C27 21.4094 26.5522 21.8572 26 21.8572H16.6857C16.1334 21.8572 15.6857 21.4094 15.6857 20.8572V11.5429Z"/><circle cx="16" cy="23" r="6" fill="#EFAC35"/></svg>