
      <svg data-logo="logo" xmlns="http://www.w3.org/2000/svg" viewBox="0 0 154 46">
        <g id="logogram" transform="translate(0, 2.5) rotate(0) "><path d="M13.0832 0.429993L23.4173 9.25886C24.0309 9.78301 24.3845 10.5522 24.3845 11.3623V18.0162L14.0503 9.18733C13.4368 8.66319 13.0832 7.894 13.0832 7.08386V0.429993Z" fill="#7B19D8"/><path d="M13.0832 40.43L23.4173 31.6011C24.0309 31.077 24.3845 30.3078 24.3845 29.4977V22.8438L14.0503 31.6727C13.4368 32.1968 13.0832 32.966 13.0832 33.7761V40.43Z" fill="#7B19D8"/><path d="M0.754395 9.74034L10.948 18.4005C11.4422 18.8204 12.0681 19.0507 12.7147 19.0507H20.9354L10.7669 10.3925C10.2723 9.9714 9.64557 9.74034 8.99786 9.74034H0.754395Z" fill="#7B19D8"/><path d="M0.754395 31.1196L10.8853 22.4645C11.3804 22.0415 12.0086 21.8093 12.6578 21.8093H20.9599L10.7663 30.4694C10.2721 30.8893 9.64625 31.1196 8.99957 31.1196H0.754395Z" fill="#7B19D8"/><path d="M38.4256 0.429993L28.0914 9.25886C27.4779 9.78301 27.1243 10.5522 27.1243 11.3623V18.0162L37.4584 9.18733C38.072 8.66319 38.4256 7.894 38.4256 7.08386V0.429993Z" fill="#7B19D8"/><path d="M38.4256 40.43L28.0914 31.6011C27.4779 31.077 27.1243 30.3078 27.1243 29.4977V22.8438L37.4584 31.6727C38.072 32.1968 38.4256 32.966 38.4256 33.7761V40.43Z" fill="#7B19D8"/><path d="M50.7544 9.74034L40.5608 18.4005C40.0666 18.8204 39.4407 19.0507 38.7941 19.0507H30.5733L40.7419 10.3925C41.2364 9.9714 41.8632 9.74034 42.5109 9.74034H50.7544Z" fill="#7B19D8"/><path d="M50.7544 31.1196L40.6235 22.4645C40.1284 22.0415 39.5002 21.8093 38.851 21.8093H30.5489L40.7425 30.4694C41.2367 30.8893 41.8625 31.1196 42.5092 31.1196H50.7544Z" fill="#7B19D8"/></g>
        <g id="logotype" transform="translate(57, 1)"><path fill="#111111" d="M15.03 36L9.08 36L9.08 11.50L15.03 11.50L15.03 36ZM24.52 26.62L11.85 26.62L11.85 21.65L24.52 21.65L24.52 26.62ZM25.95 16.75L11.85 16.75L11.85 11.50L25.95 11.50L25.95 16.75ZM34.98 36L29.38 36L29.38 17.41L34.98 17.41L34.98 36ZM32.18 13.74L32.18 13.74Q30.61 13.74 29.71 12.99Q28.82 12.23 28.82 10.83L28.82 10.83Q28.82 9.57 29.73 8.77Q30.64 7.96 32.18 7.96L32.18 7.96Q33.76 7.96 34.63 8.72Q35.51 9.47 35.51 10.83L35.51 10.83Q35.51 12.13 34.61 12.93Q33.72 13.74 32.18 13.74ZM39.18 36L39.18 36L39.18 17.41L44.50 17.41L44.68 21.20L43.56 21.61Q43.94 20.35 44.94 19.32Q45.94 18.29 47.34 17.66Q48.74 17.03 50.28 17.03L50.28 17.03Q52.38 17.03 53.81 17.89Q55.25 18.74 55.98 20.44Q56.72 22.14 56.72 24.59L56.72 24.59L56.72 36L51.08 36L51.08 25.04Q51.08 23.92 50.77 23.19Q50.45 22.45 49.80 22.09Q49.16 21.72 48.21 21.75L48.21 21.75Q47.48 21.75 46.85 21.98Q46.22 22.21 45.76 22.65Q45.31 23.09 45.04 23.64Q44.78 24.20 44.78 24.87L44.78 24.87L44.78 36L42.02 36Q41.04 36 40.34 36Q39.64 36 39.18 36ZM68.86 44.05L68.86 44.05Q66.59 44.05 64.33 43.38Q62.07 42.72 60.67 41.67L60.67 41.67L62.63 37.75Q63.37 38.24 64.26 38.61Q65.15 38.98 66.13 39.19Q67.11 39.40 68.13 39.40L68.13 39.40Q69.91 39.40 71.03 38.87Q72.15 38.34 72.71 37.28Q73.27 36.21 73.27 34.60L73.27 34.60L73.27 31.48L74.36 31.66Q74.11 32.81 73.15 33.76Q72.19 34.70 70.79 35.28Q69.39 35.86 67.81 35.86L67.81 35.86Q65.29 35.86 63.31 34.69Q61.34 33.52 60.20 31.43Q59.06 29.35 59.06 26.62L59.06 26.62Q59.06 23.82 60.18 21.67Q61.30 19.51 63.26 18.27Q65.22 17.03 67.67 17.03L67.67 17.03Q68.72 17.03 69.68 17.27Q70.65 17.52 71.47 17.92Q72.29 18.32 72.94 18.87Q73.59 19.41 73.99 20.04Q74.39 20.67 74.53 21.34L74.53 21.34L73.38 21.61L73.59 17.41L78.91 17.41L78.91 34.49Q78.91 36.77 78.22 38.54Q77.54 40.30 76.23 41.55Q74.92 42.79 73.06 43.42Q71.21 44.05 68.86 44.05ZM69.00 31.52L69.00 31.52Q70.37 31.52 71.36 30.91Q72.36 30.29 72.90 29.21Q73.45 28.13 73.45 26.66L73.45 26.66Q73.45 25.18 72.90 24.08Q72.36 22.98 71.36 22.37Q70.37 21.75 69.00 21.75L69.00 21.75Q67.67 21.75 66.69 22.37Q65.71 22.98 65.17 24.08Q64.63 25.18 64.63 26.66L64.63 26.66Q64.63 28.13 65.17 29.21Q65.71 30.29 66.69 30.91Q67.67 31.52 69.00 31.52ZM88.64 36.35L88.64 36.35Q85.91 36.35 83.82 35.48Q81.74 34.60 80.52 33.13L80.52 33.13L83.91 30.19Q85.00 31.27 86.36 31.78Q87.73 32.29 88.95 32.29L88.95 32.29Q89.44 32.29 89.83 32.19Q90.21 32.08 90.47 31.89Q90.74 31.70 90.88 31.43Q91.02 31.17 91.02 30.82L91.02 30.82Q91.02 30.12 90.39 29.73L90.39 29.73Q90.07 29.56 89.34 29.31Q88.60 29.07 87.45 28.75L87.45 28.75Q85.80 28.34 84.59 27.76Q83.39 27.18 82.62 26.41L82.62 26.41Q81.92 25.67 81.53 24.78Q81.15 23.89 81.15 22.77L81.15 22.77Q81.15 21.47 81.76 20.42Q82.37 19.38 83.40 18.60Q84.44 17.83 85.78 17.43Q87.13 17.03 88.57 17.03L88.57 17.03Q90.11 17.03 91.51 17.38Q92.91 17.73 94.11 18.36Q95.32 18.99 96.27 19.86L96.27 19.86L93.33 23.16Q92.70 22.56 91.91 22.09Q91.12 21.61 90.28 21.34Q89.44 21.05 88.74 21.05L88.74 21.05Q88.22 21.05 87.81 21.14Q87.41 21.23 87.13 21.42Q86.85 21.61 86.71 21.88Q86.57 22.14 86.57 22.49L86.57 22.49Q86.57 22.84 86.76 23.16Q86.96 23.47 87.31 23.68L87.31 23.68Q87.66 23.89 88.43 24.15Q89.20 24.41 90.53 24.80L90.53 24.80Q92.17 25.25 93.36 25.81Q94.55 26.38 95.25 27.14L95.25 27.14Q95.81 27.74 96.09 28.53Q96.37 29.31 96.37 30.23L96.37 30.23Q96.37 32.01 95.37 33.39Q94.38 34.77 92.63 35.56Q90.88 36.35 88.64 36.35Z"/></g>
        
      </svg>
    